<svg width="925" height="342" viewBox="0 0 925 342" fill="none" xmlns="http://www.w3.org/2000/svg">
<path d="M0 342V107C6.40057 107 12.5366 104.446 17.0472 99.9052L62.7058 53.9382C125.019 -8.7963 223.711 -16.8766 295.399 34.8867L336.366 64.4669C380.948 96.6579 437.021 108.596 490.849 97.3558L512.037 92.9316C544.265 86.202 577.839 91.2733 606.642 107.222L630.723 120.556C670.201 142.415 719.393 135.41 751.2 103.399L755.774 98.7957C788.243 66.118 839.695 62.0094 876.938 89.1205L882.501 93.1696C894.848 102.158 909.728 107 925 107V342H0Z" fill="#8983AA"/>
</svg>
